<?xml version="1.0"?>
<svg width="512" height="512" xmlns="http://www.w3.org/2000/svg" xmlns:svg="http://www.w3.org/2000/svg" xmlns:xlink="http://www.w3.org/1999/xlink">
 <!-- Created with SVG-edit - https://github.com/SVG-Edit/svgedit-->
 <defs>
  <symbol height="300.000000pt" id="svg_5" preserveAspectRatio="xMidYMid meet" viewBox="0 0 1024.000000 300.000000" width="1024.000000pt" xmlns="http://www.w3.org/2000/svg">
   <g fill="#000000" id="svg_8" transform="translate(0.000000,300.000000) scale(0.100000,-0.100000)">
    <path d="m200,1500l0,-1190l1030,0l1030,0l0,250l0,250l155,0l155,0l0,-250l0,-250l3735,0l3735,0l0,1190l0,1190l-1900,0l-1900,0l0,-855l0,-855l-325,0l-325,0l0,155l0,155l-470,0l-470,0l0,240l0,240l470,0l470,0l0,460l0,460l-1510,0l-1510,0l0,-225l0,-225l-155,0l-155,0l0,225l0,225l-1030,0l-1030,0l0,-1190zm940,30l0,-1040l-395,0l-395,0l0,1040l0,1040l395,0l395,0l0,-1040zm960,875l0,-165l80,0l80,0l0,-80l0,-80l155,0l155,0l0,80l0,80l80,0l80,0l0,165l0,165l400,0l400,0l0,-1040l0,-1040l-400,0l-400,0l0,400l0,400l-80,0l-80,0l0,-155l0,-155l-155,0l-155,0l0,155l0,155l-80,0l-80,0l0,-400l0,-400l-400,0l-400,0l0,1040l0,1040l400,0l400,0l0,-165zm3340,-160l0,-325l-475,0l-475,0l0,-395l0,-395l475,0l475,0l0,-320l0,-320l-875,0l-875,0l0,1040l0,1040l875,0l875,0l0,-325zm2540,-235l0,-560l-155,0l-155,0l0,-80l0,-80l155,0l155,0l0,-400l0,-400l-320,0l-320,0l0,400l0,400l-160,0l-160,0l0,-400l0,-400l-315,0l-315,0l0,1040l0,1040l795,0l795,0l0,-560zm1910,315l0,-245l-475,0l-475,0l0,-155l0,-155l475,0l475,0l0,-240l0,-240l-475,0l-475,0l0,-155l0,-155l475,0l475,0l0,-245l0,-245l-795,0l-795,0l0,1040l0,1040l795,0l795,0l0,-245zm-3810,-1675l0,-160l-165,0l-165,0l0,160l0,160l165,0l165,0l0,-160z" id="svg_9"/>
    <path d="m7020,1925l0,-155l160,0l160,0l0,155l0,155l-160,0l-160,0l0,-155z" id="svg_10"/>
   </g>
  </symbol>
 </defs>
 <g class="layer">
  <title>Layer 1</title>
  <path d="m155.73,224.92c24.08,40.28 28.79,52.52 20.82,54.18c-15.56,3.25 -12.43,21.81 9.34,55.48c27.31,42.23 80.79,68.16 131.02,63.53c19.5,-1.8 41.54,-5.51 48.99,-8.24c7.44,-2.74 2.88,2.36 -10.15,11.33c-65.17,44.85 -145.66,41.73 -209.87,-8.15c-25.6,-19.89 -60.83,-77.99 -60.83,-100.34c0,-6.33 -5.81,-12.46 -12.91,-13.63c-11.61,-1.91 -10.05,-6.93 15.51,-49.96c15.63,-26.31 30.33,-49.73 32.69,-52.03c2.35,-2.31 18.28,19.22 35.39,47.84zm207.03,77.66c-24.08,-40.28 -28.79,-52.52 -20.82,-54.18c15.56,-3.25 12.43,-21.81 -9.34,-55.48c-27.31,-42.23 -80.79,-68.16 -131.02,-63.53c-19.5,1.8 -41.54,5.51 -48.99,8.24c-7.44,2.74 -2.88,-2.36 10.15,-11.33c65.17,-44.85 145.66,-41.73 209.87,8.15c25.6,19.89 60.83,77.99 60.83,100.34c0,6.33 5.81,12.46 12.91,13.63c11.61,1.91 10.05,6.93 -15.51,49.96c-15.63,26.31 -30.34,49.73 -32.69,52.03c-2.35,2.31 -18.28,-19.22 -35.39,-47.84z" fill="#ffff00" id="svg_11" stroke="#ffffff" stroke-width="5"/>
  <use fill="#ffffff" id="svg_6" stroke="#ffffff" stroke-width="10" transform="matrix(1 0 0 1 0 0) matrix(0.330755 0 0 0.336632 -51.9767 -178.521)" x="250.11" xlink:href="#svg_5" y="1106.95"/>
 </g>
</svg>