<?xml version="1.0" standalone="no"?>
<!DOCTYPE svg PUBLIC "-//W3C//DTD SVG 20010904//EN"
 "http://www.w3.org/TR/2001/REC-SVG-20010904/DTD/svg10.dtd">
<svg version="1.0" xmlns="http://www.w3.org/2000/svg"
 width="1024.000000pt" height="300.000000pt" viewBox="0 0 1024.000000 300.000000"
 preserveAspectRatio="xMidYMid meet">

<g transform="translate(0.000000,300.000000) scale(0.100000,-0.100000)"
fill="#000000" stroke="none">
<path d="M200 1500 l0 -1190 1030 0 1030 0 0 250 0 250 155 0 155 0 0 -250 0
-250 3735 0 3735 0 0 1190 0 1190 -1900 0 -1900 0 0 -855 0 -855 -325 0 -325
0 0 155 0 155 -470 0 -470 0 0 240 0 240 470 0 470 0 0 460 0 460 -1510 0
-1510 0 0 -225 0 -225 -155 0 -155 0 0 225 0 225 -1030 0 -1030 0 0 -1190z
m940 30 l0 -1040 -395 0 -395 0 0 1040 0 1040 395 0 395 0 0 -1040z m960 875
l0 -165 80 0 80 0 0 -80 0 -80 155 0 155 0 0 80 0 80 80 0 80 0 0 165 0 165
400 0 400 0 0 -1040 0 -1040 -400 0 -400 0 0 400 0 400 -80 0 -80 0 0 -155 0
-155 -155 0 -155 0 0 155 0 155 -80 0 -80 0 0 -400 0 -400 -400 0 -400 0 0
1040 0 1040 400 0 400 0 0 -165z m3340 -160 l0 -325 -475 0 -475 0 0 -395 0
-395 475 0 475 0 0 -320 0 -320 -875 0 -875 0 0 1040 0 1040 875 0 875 0 0
-325z m2540 -235 l0 -560 -155 0 -155 0 0 -80 0 -80 155 0 155 0 0 -400 0
-400 -320 0 -320 0 0 400 0 400 -160 0 -160 0 0 -400 0 -400 -315 0 -315 0 0
1040 0 1040 795 0 795 0 0 -560z m1910 315 l0 -245 -475 0 -475 0 0 -155 0
-155 475 0 475 0 0 -240 0 -240 -475 0 -475 0 0 -155 0 -155 475 0 475 0 0
-245 0 -245 -795 0 -795 0 0 1040 0 1040 795 0 795 0 0 -245z m-3810 -1675 l0
-160 -165 0 -165 0 0 160 0 160 165 0 165 0 0 -160z"/>
<path d="M7020 1925 l0 -155 160 0 160 0 0 155 0 155 -160 0 -160 0 0 -155z"/>
</g>
</svg>
