<?xml version="1.0" standalone="no"?>
<!DOCTYPE svg PUBLIC "-//W3C//DTD SVG 20010904//EN"
 "http://www.w3.org/TR/2001/REC-SVG-20010904/DTD/svg10.dtd">
<svg version="1.0" xmlns="http://www.w3.org/2000/svg"
 width="64.000000pt" height="64.000000pt" viewBox="0 0 64.000000 64.000000"
 preserveAspectRatio="xMidYMid meet">

<g transform="translate(0.000000,64.000000) scale(0.100000,-0.100000)"
fill="#000000" stroke="none">
<path d="M10 320 l0 -80 65 0 c51 0 65 3 65 15 0 8 5 15 10 15 6 0 10 -7 10
-15 0 -13 33 -15 235 -15 l235 0 0 80 0 80 -120 0 -120 0 0 -55 c0 -48 -2 -55
-20 -55 -11 0 -20 5 -20 10 0 6 -13 10 -30 10 -16 0 -30 5 -30 10 0 6 14 10
30 10 28 0 30 3 30 35 l0 35 -95 0 c-78 0 -95 -3 -95 -15 0 -8 -4 -15 -10 -15
-5 0 -10 7 -10 15 0 12 -14 15 -65 15 l-65 0 0 -80z m60 5 c0 -63 -1 -65 -25
-65 -24 0 -25 2 -25 65 0 63 1 65 25 65 24 0 25 -2 25 -65z m66 48 c13 -17 15
-17 28 0 7 9 23 17 35 17 19 0 21 -5 21 -65 0 -63 -1 -65 -25 -65 -21 0 -25 5
-25 28 0 21 -2 24 -10 12 -9 -13 -11 -13 -20 0 -8 12 -10 9 -10 -12 0 -23 -4
-28 -25 -28 -24 0 -25 2 -25 65 0 60 2 65 21 65 12 0 28 -8 35 -17z m204 -3
c0 -16 -7 -20 -30 -20 -25 0 -30 -4 -30 -25 0 -21 5 -25 30 -25 23 0 30 -4 30
-20 0 -18 -7 -20 -55 -20 l-55 0 0 65 0 65 55 0 c48 0 55 -2 55 -20z m160 -15
c0 -21 -5 -35 -12 -36 -10 0 -10 -2 0 -6 6 -2 12 -16 12 -29 0 -17 -6 -24 -20
-24 -15 0 -20 7 -20 25 0 14 -4 25 -10 25 -5 0 -10 -11 -10 -25 0 -18 -5 -25
-20 -25 -18 0 -20 7 -20 65 l0 65 50 0 50 0 0 -35z m120 20 c0 -10 -10 -15
-30 -15 -16 0 -30 -4 -30 -10 0 -5 14 -10 30 -10 20 0 30 -5 30 -15 0 -10 -10
-15 -30 -15 -16 0 -30 -4 -30 -10 0 -5 14 -10 30 -10 20 0 30 -5 30 -15 0 -11
-12 -15 -50 -15 l-50 0 0 65 0 65 50 0 c38 0 50 -4 50 -15z m-240 -105 c0 -5
-4 -10 -10 -10 -5 0 -10 5 -10 10 0 6 5 10 10 10 6 0 10 -4 10 -10z"/>
<path d="M440 350 c0 -5 5 -10 10 -10 6 0 10 5 10 10 0 6 -4 10 -10 10 -5 0
-10 -4 -10 -10z"/>
</g>
</svg>
